<?xml version="1.0" encoding="utf-8"?>
<!-- Generator: Adobe Illustrator 21.1.0, SVG Export Plug-In . SVG Version: 6.00 Build 0)  -->
<svg version="1.1" id="Layer_1" xmlns="http://www.w3.org/2000/svg" xmlns:xlink="http://www.w3.org/1999/xlink" x="0px" y="0px"
	 viewBox="0 0 84.1 68.3" style="enable-background:new 0 0 84.1 68.3;" xml:space="preserve">
<style type="text/css">
	.st0{fill:#0000FF;}
</style>
<g>
	<rect x="72.8" y="1.1" transform="matrix(0.7071 -0.7071 0.7071 0.7071 14.248 56.234)" class="st0" width="4.4" height="19.6"/>
	<rect x="49.9" y="7.6" transform="matrix(0.7071 -0.7071 0.7071 0.7071 10.9515 46.0792)" class="st0" width="22.5" height="4.4"/>
	<rect x="46.1" y="-1.4" transform="matrix(0.7071 -0.7071 0.7071 0.7071 7.1988 37.0191)" class="st0" width="4.4" height="22.5"/>
	<rect x="25.8" y="8.3" transform="matrix(0.7071 -0.7071 0.7071 0.7071 2.8244 27.7065)" class="st0" width="18.1" height="4.4"/>
	<rect x="21.4" y="1.2" transform="matrix(0.7071 -0.7071 0.7071 0.7071 -0.8217 19.9038)" class="st0" width="4.4" height="19.5"/>
	<rect x="-1.6" y="7.6" transform="matrix(0.7071 -0.7071 0.7071 0.7071 -4.1076 9.7234)" class="st0" width="22.5" height="4.4"/>
</g>
<g>
	<rect x="72.8" y="13.1" transform="matrix(0.7071 -0.7071 0.7071 0.7071 5.7627 59.7487)" class="st0" width="4.4" height="19.6"/>
	<rect x="49.9" y="19.6" transform="matrix(0.7071 -0.7071 0.7071 0.7071 2.4662 49.5939)" class="st0" width="22.5" height="4.4"/>
	
		<rect x="46.1" y="10.6" transform="matrix(0.7071 -0.7071 0.7071 0.7071 -1.2865 40.5338)" class="st0" width="4.4" height="22.5"/>
	
		<rect x="25.8" y="20.3" transform="matrix(0.7071 -0.7071 0.7071 0.7071 -5.6609 31.2212)" class="st0" width="18.1" height="4.4"/>
	
		<rect x="21.4" y="13.2" transform="matrix(0.7071 -0.7071 0.7071 0.7071 -9.3069 23.4185)" class="st0" width="4.4" height="19.5"/>
	
		<rect x="-1.6" y="19.6" transform="matrix(0.7071 -0.7071 0.7071 0.7071 -12.5929 13.2382)" class="st0" width="22.5" height="4.4"/>
</g>
<g>
	
		<rect x="72.8" y="25.1" transform="matrix(0.7071 -0.7071 0.7071 0.7071 -2.7226 63.2635)" class="st0" width="4.4" height="19.6"/>
	
		<rect x="49.9" y="31.6" transform="matrix(0.7071 -0.7071 0.7071 0.7071 -6.0191 53.1086)" class="st0" width="22.5" height="4.4"/>
	
		<rect x="46.1" y="22.6" transform="matrix(0.7071 -0.7071 0.7071 0.7071 -9.7718 44.0486)" class="st0" width="4.4" height="22.5"/>
	
		<rect x="25.8" y="32.3" transform="matrix(0.7071 -0.7071 0.7071 0.7071 -14.1462 34.7359)" class="st0" width="18.1" height="4.4"/>
	
		<rect x="21.4" y="25.2" transform="matrix(0.7071 -0.7071 0.7071 0.7071 -17.7922 26.9333)" class="st0" width="4.4" height="19.5"/>
	
		<rect x="-1.6" y="31.6" transform="matrix(0.7071 -0.7071 0.7071 0.7071 -21.0782 16.7529)" class="st0" width="22.5" height="4.4"/>
</g>
<g>
	
		<rect x="72.8" y="37.1" transform="matrix(0.7071 -0.7071 0.7071 0.7071 -11.2079 66.7782)" class="st0" width="4.4" height="19.6"/>
	
		<rect x="49.9" y="43.6" transform="matrix(0.7071 -0.7071 0.7071 0.7071 -14.5044 56.6233)" class="st0" width="22.5" height="4.4"/>
	
		<rect x="46.1" y="34.6" transform="matrix(0.7071 -0.7071 0.7071 0.7071 -18.257 47.5633)" class="st0" width="4.4" height="22.5"/>
	
		<rect x="25.8" y="44.3" transform="matrix(0.7071 -0.7071 0.7071 0.7071 -22.6315 38.2507)" class="st0" width="18.1" height="4.4"/>
	
		<rect x="21.4" y="37.2" transform="matrix(0.7071 -0.7071 0.7071 0.7071 -26.2775 30.448)" class="st0" width="4.4" height="19.5"/>
	
		<rect x="-1.6" y="43.6" transform="matrix(0.7071 -0.7071 0.7071 0.7071 -29.5634 20.2676)" class="st0" width="22.5" height="4.4"/>
</g>
<g>
	
		<rect x="72.8" y="49.1" transform="matrix(0.7071 -0.7071 0.7071 0.7071 -19.6932 70.2929)" class="st0" width="4.4" height="19.6"/>
	
		<rect x="49.9" y="55.6" transform="matrix(0.7071 -0.7071 0.7071 0.7071 -22.9897 60.1381)" class="st0" width="22.5" height="4.4"/>
	
		<rect x="46.1" y="46.6" transform="matrix(0.7071 -0.7071 0.7071 0.7071 -26.7423 51.078)" class="st0" width="4.4" height="22.5"/>
	
		<rect x="25.8" y="56.3" transform="matrix(0.7071 -0.7071 0.7071 0.7071 -31.1167 41.7654)" class="st0" width="18.1" height="4.4"/>
	
		<rect x="21.4" y="49.2" transform="matrix(0.7071 -0.7071 0.7071 0.7071 -34.7628 33.9627)" class="st0" width="4.4" height="19.5"/>
	
		<rect x="-1.6" y="55.6" transform="matrix(0.7071 -0.7071 0.7071 0.7071 -38.0487 23.7823)" class="st0" width="22.5" height="4.4"/>
</g>
</svg>
