<?xml version="1.0" encoding="utf-8"?>
<!-- Generator: Adobe Illustrator 21.1.0, SVG Export Plug-In . SVG Version: 6.00 Build 0)  -->
<svg version="1.1" id="Layer_1" xmlns="http://www.w3.org/2000/svg" xmlns:xlink="http://www.w3.org/1999/xlink" x="0px" y="0px"
	 viewBox="0 0 302 80" style="enable-background:new 0 0 302 80;" xml:space="preserve">
<style type="text/css">
	.st0{display:none;}
	.st1{display:inline;fill:#0B0B33;}
	.st2{fill:#FFFFFF;}
	.st3{fill:#0000FF;}
</style>
<g id="Layer_2" class="st0">
	<rect x="-78" y="-56" class="st1" width="431" height="193"/>
</g>
<g id="Layer_1_1_">
	<g>
		<path class="st2" d="M126.7,35.5h-2.1l7.7-17.8h1.8l7.7,17.8h-2.1l-2-4.7h-9.1L126.7,35.5z M129.3,29.2h7.7l-3.8-9.3L129.3,29.2z"
			/>
		<path class="st2" d="M157,32.2l6-14.4h2.8v17.8H164V20.2l0,0l-6.4,15.3h-1l-6.4-15.3l0,0v15.3h-1.8V17.8h2.8L157,32.2z"/>
		<path class="st2" d="M187.2,28.9c0,0.7-0.1,1.5-0.3,2.3s-0.5,1.6-1,2.3s-1.1,1.3-2,1.7c-0.8,0.5-1.9,0.7-3.2,0.7s-2.4-0.2-3.3-0.7
			c-0.8-0.5-1.5-1-2-1.7s-0.8-1.5-1-2.3s-0.3-1.6-0.3-2.3V17.8h1.8v10.9c0,0.9,0.1,1.6,0.2,2.2c0.2,0.6,0.4,1.1,0.7,1.5
			s0.6,0.7,0.9,1c0.3,0.2,0.7,0.4,1,0.6s0.7,0.2,1,0.3c0.3,0,0.6,0.1,0.8,0.1s0.5,0,0.8-0.1c0.3,0,0.7-0.1,1-0.3
			c0.3-0.1,0.7-0.3,1-0.6c0.3-0.2,0.7-0.6,0.9-1c0.3-0.4,0.5-0.9,0.7-1.5s0.3-1.3,0.3-2.2V17.8h1.8v11.1H187.2z"/>
		<path class="st2" d="M208.6,32.8L208.6,32.8v-15h1.8v17.8h-2.3l-10.6-15.2l0,0v15.2h-1.8V17.8h2.3L208.6,32.8z"/>
		<path class="st2" d="M219,17.8h5.9c1.1,0,2.2,0.2,3.3,0.6s2.1,0.9,3,1.7c0.9,0.7,1.6,1.7,2.2,2.8s0.8,2.4,0.8,3.9
			s-0.3,2.8-0.8,3.9c-0.6,1.1-1.3,2-2.2,2.8c-0.9,0.7-1.9,1.3-3,1.7s-2.2,0.6-3.3,0.6H219V17.8z M220.8,33.9h3.5
			c1.4,0,2.5-0.2,3.5-0.6s1.8-1,2.5-1.6s1.1-1.4,1.5-2.3c0.3-0.9,0.5-1.8,0.5-2.7c0-0.9-0.2-1.8-0.5-2.7c-0.3-0.9-0.8-1.6-1.5-2.3
			s-1.5-1.2-2.5-1.6s-2.2-0.6-3.5-0.6h-3.5V33.9z"/>
		<path class="st2" d="M250.2,20.7c-0.8-1.2-1.9-1.7-3.4-1.7c-0.5,0-0.9,0.1-1.4,0.2s-0.9,0.3-1.2,0.6c-0.4,0.3-0.6,0.6-0.9,1
			c-0.2,0.4-0.3,0.9-0.3,1.4c0,0.8,0.2,1.4,0.7,1.9c0.5,0.4,1,0.8,1.7,1.1s1.4,0.5,2.2,0.8c0.8,0.2,1.5,0.5,2.2,0.9s1.2,0.9,1.7,1.5
			s0.7,1.5,0.7,2.5c0,0.8-0.2,1.5-0.5,2.2c-0.3,0.6-0.8,1.2-1.4,1.6c-0.6,0.4-1.2,0.8-1.9,1s-1.4,0.4-2.1,0.4
			c-1.1,0-2.1-0.2-3.1-0.6c-1-0.4-1.8-1.1-2.5-2l1.7-1.2c0.4,0.7,0.9,1.2,1.6,1.6c0.7,0.4,1.5,0.6,2.4,0.6c0.4,0,0.9-0.1,1.3-0.2
			c0.4-0.1,0.9-0.4,1.2-0.6c0.4-0.3,0.7-0.6,0.9-1s0.3-0.9,0.3-1.4c0-0.6-0.1-1.1-0.4-1.5c-0.3-0.4-0.6-0.8-1-1
			c-0.4-0.3-0.9-0.5-1.5-0.7s-1.1-0.4-1.7-0.6s-1.1-0.4-1.7-0.6c-0.5-0.2-1-0.5-1.5-0.9s-0.8-0.8-1-1.4c-0.3-0.5-0.4-1.2-0.4-2
			c0-0.9,0.2-1.6,0.5-2.2s0.8-1.2,1.3-1.6s1.2-0.7,1.8-0.9c0.7-0.2,1.4-0.3,2.1-0.3c1,0,1.9,0.2,2.7,0.5s1.6,0.9,2.3,1.7L250.2,20.7
			z"/>
		<path class="st2" d="M261.5,33.9h9.5v1.7h-11.3V17.8h11v1.7h-9.2v6h8.6v1.7h-8.6V33.9z"/>
		<path class="st2" d="M291.4,32.8L291.4,32.8l0.1-15h1.8v17.8H291l-10.6-15.2l0,0v15.2h-1.8V17.8h2.3L291.4,32.8z"/>
	</g>
	<g>
		<path class="st2" d="M126.4,43.8h6.6c0.8,0,1.5,0.1,2.3,0.2c0.8,0.1,1.5,0.3,2.1,0.7c0.6,0.3,1.1,0.8,1.5,1.4
			c0.4,0.6,0.6,1.4,0.6,2.3c0,1-0.3,1.8-0.8,2.5c-0.6,0.7-1.3,1.1-2.2,1.4l0,0c0.6,0.1,1.1,0.2,1.6,0.5c0.5,0.2,0.9,0.6,1.2,0.9
			c0.3,0.4,0.6,0.8,0.8,1.3s0.3,1,0.3,1.6c0,0.9-0.2,1.7-0.6,2.3c-0.4,0.6-0.9,1.1-1.6,1.5c-0.6,0.4-1.3,0.7-2.1,0.8
			c-0.8,0.2-1.6,0.3-2.4,0.3h-7.3C126.4,61.5,126.4,43.8,126.4,43.8z M130.3,50.9h2.8c0.3,0,0.6,0,0.9-0.1c0.3-0.1,0.6-0.2,0.8-0.3
			s0.4-0.4,0.6-0.6s0.2-0.6,0.2-0.9c0-0.4-0.1-0.7-0.2-0.9c-0.2-0.2-0.4-0.4-0.6-0.6c-0.3-0.1-0.5-0.2-0.9-0.3
			c-0.3-0.1-0.6-0.1-0.9-0.1h-2.7L130.3,50.9L130.3,50.9z M130.3,58.2h3.5c0.3,0,0.6,0,0.9-0.1c0.3-0.1,0.6-0.2,0.8-0.4
			c0.3-0.2,0.5-0.4,0.6-0.7s0.2-0.6,0.2-1s-0.1-0.8-0.3-1s-0.5-0.5-0.8-0.6s-0.7-0.2-1-0.3s-0.7-0.1-1-0.1h-3v4.2H130.3z"/>
		<path class="st2" d="M152.5,43.8h3.2l7.7,17.8H159l-1.5-3.8h-6.9l-1.5,3.8h-4.3L152.5,43.8z M154,49l-2.2,5.5h4.3L154,49z"/>
		<path class="st2" d="M169.2,43.8h5.9c1.4,0,2.8,0.2,4,0.5s2.4,0.8,3.3,1.5c1,0.7,1.7,1.6,2.3,2.8c0.6,1.1,0.8,2.5,0.8,4.1
			c0,1.4-0.3,2.7-0.8,3.8s-1.3,2-2.2,2.8c-0.9,0.7-2,1.3-3.2,1.7s-2.5,0.6-3.8,0.6h-6.4L169.2,43.8L169.2,43.8z M173.1,57.9h2
			c0.9,0,1.7-0.1,2.5-0.3s1.4-0.5,2-0.9s1-1,1.3-1.7s0.5-1.5,0.5-2.5c0-0.9-0.2-1.6-0.5-2.3s-0.8-1.2-1.3-1.6
			c-0.6-0.4-1.2-0.7-1.9-0.9s-1.5-0.3-2.3-0.3h-2.3V57.9z"/>
		<path class="st2" d="M214.8,57.4l4,4.2H214l-1.5-1.7c-0.7,0.8-1.5,1.3-2.4,1.6c-0.8,0.3-1.8,0.5-2.8,0.5c-0.8,0-1.6-0.1-2.3-0.3
			c-0.8-0.2-1.4-0.5-2-1c-0.6-0.4-1.1-1-1.4-1.7c-0.4-0.7-0.5-1.4-0.5-2.3c0-0.6,0.1-1.1,0.3-1.6s0.5-1,0.8-1.4s0.7-0.8,1.2-1.1
			s0.9-0.6,1.5-0.7c-0.3-0.3-0.5-0.6-0.8-0.9s-0.5-0.6-0.6-0.9c-0.2-0.3-0.3-0.7-0.4-1c-0.1-0.4-0.1-0.7-0.1-1.2
			c0-0.8,0.2-1.5,0.5-2.1s0.7-1,1.2-1.4s1.1-0.6,1.8-0.8s1.4-0.3,2.1-0.3c0.7,0,1.3,0.1,2,0.3c0.6,0.2,1.2,0.4,1.6,0.8
			s0.9,0.8,1.1,1.4s0.4,1.2,0.4,1.9c0,0.5-0.1,1-0.3,1.5s-0.4,0.9-0.7,1.3c-0.3,0.4-0.6,0.7-1,1.1c-0.4,0.3-0.8,0.6-1.3,0.8l2.3,2.4
			l1.7-2.4h4.4L214.8,57.4z M207,54c-0.2,0.2-0.5,0.3-0.7,0.5s-0.5,0.3-0.7,0.5s-0.3,0.4-0.5,0.7c-0.1,0.3-0.2,0.5-0.2,0.9
			c0,0.3,0.1,0.6,0.2,0.9c0.1,0.3,0.3,0.5,0.5,0.7s0.5,0.3,0.8,0.4c0.3,0.1,0.6,0.2,0.9,0.2c0.6,0,1.1-0.1,1.5-0.4
			c0.4-0.2,0.8-0.6,1.3-0.9L207,54z M208.2,46.4c-0.5,0-0.9,0.2-1.2,0.5s-0.5,0.7-0.5,1.2c0,0.2,0,0.4,0.2,0.6
			c0.1,0.2,0.2,0.4,0.4,0.6c0.1,0.2,0.3,0.4,0.5,0.5c0.2,0.2,0.3,0.3,0.5,0.5c0.2-0.1,0.4-0.3,0.7-0.4c0.2-0.2,0.5-0.3,0.7-0.5
			s0.4-0.4,0.5-0.6c0.1-0.2,0.2-0.5,0.2-0.7c0-0.5-0.2-0.9-0.5-1.2C209.1,46.5,208.7,46.4,208.2,46.4z"/>
		<path class="st2" d="M236.3,43.8h11.9v3.6h-8V51h7.4v3.6h-7.4v6.9h-3.9V43.8z"/>
		<path class="st2" d="M255.2,43.8h3.9v14.1h7.2v3.6h-11.2L255.2,43.8L255.2,43.8z"/>
		<path class="st2" d="M272.4,43.8h3.9v17.8h-3.9V43.8z"/>
		<path class="st2" d="M292.7,48.1c-0.3-0.4-0.7-0.7-1.3-0.9c-0.5-0.2-1.1-0.3-1.5-0.3c-0.3,0-0.6,0-0.9,0.1s-0.6,0.2-0.9,0.3
			s-0.5,0.3-0.7,0.6c-0.2,0.2-0.3,0.5-0.3,0.9c0,0.5,0.2,0.9,0.6,1.2s0.9,0.5,1.5,0.7s1.3,0.4,2,0.6c0.7,0.2,1.4,0.5,2,0.9
			s1.1,0.9,1.5,1.5s0.6,1.4,0.6,2.5c0,1-0.2,1.8-0.6,2.6c-0.4,0.7-0.9,1.3-1.5,1.8s-1.4,0.8-2.2,1.1c-0.8,0.2-1.7,0.4-2.6,0.4
			c-1.2,0-2.2-0.2-3.2-0.5s-1.9-0.9-2.8-1.7l2.8-3.1c0.4,0.5,0.9,0.9,1.5,1.2s1.2,0.4,1.9,0.4c0.3,0,0.6,0,1-0.1
			c0.3-0.1,0.6-0.2,0.9-0.3s0.5-0.3,0.6-0.6s0.2-0.5,0.2-0.8c0-0.5-0.2-1-0.6-1.3s-0.9-0.6-1.5-0.8s-1.3-0.4-2-0.7
			c-0.7-0.2-1.4-0.5-2-0.9s-1.1-0.9-1.5-1.5s-0.6-1.4-0.6-2.4s0.2-1.8,0.6-2.5s0.9-1.3,1.5-1.8s1.3-0.8,2.2-1.1
			c0.8-0.2,1.7-0.4,2.5-0.4c1,0,2,0.1,2.9,0.4s1.8,0.8,2.5,1.4L292.7,48.1z"/>
	</g>
</g>
<g>
	<rect x="84" y="3.3" transform="matrix(0.7071 -0.7071 0.7071 0.7071 15.433 65.1573)" class="st3" width="4.7" height="21.3"/>
	<rect x="59.1" y="10.4" transform="matrix(0.7071 -0.7071 0.7071 0.7071 11.8549 54.135)" class="st3" width="24.4" height="4.7"/>
	<rect x="55" y="0.6" transform="matrix(0.7071 -0.7071 0.7071 0.7071 7.7817 44.3011)" class="st3" width="4.7" height="24.4"/>
	<rect x="33" y="11.1" transform="matrix(0.7071 -0.7071 0.7071 0.7071 3.0336 34.193)" class="st3" width="19.7" height="4.7"/>
	<rect x="28.2" y="3.4" transform="matrix(0.7071 -0.7071 0.7071 0.7071 -0.9239 25.7238)" class="st3" width="4.7" height="21.2"/>
	<rect x="3.3" y="10.4" transform="matrix(0.7071 -0.7071 0.7071 0.7071 -4.4905 14.6738)" class="st3" width="24.4" height="4.7"/>
</g>
<g>
	<rect x="84" y="16.3" transform="matrix(0.7071 -0.7071 0.7071 0.7071 6.2229 68.9722)" class="st3" width="4.7" height="21.3"/>
	<rect x="59.1" y="23.4" transform="matrix(0.7071 -0.7071 0.7071 0.7071 2.6448 57.95)" class="st3" width="24.4" height="4.7"/>
	<rect x="55" y="13.6" transform="matrix(0.7071 -0.7071 0.7071 0.7071 -1.4284 48.116)" class="st3" width="4.7" height="24.4"/>
	<rect x="33" y="24.1" transform="matrix(0.7071 -0.7071 0.7071 0.7071 -6.1765 38.0079)" class="st3" width="19.7" height="4.7"/>
	
		<rect x="28.2" y="16.4" transform="matrix(0.7071 -0.7071 0.7071 0.7071 -10.1339 29.5387)" class="st3" width="4.7" height="21.2"/>
	
		<rect x="3.3" y="23.4" transform="matrix(0.7071 -0.7071 0.7071 0.7071 -13.7006 18.4888)" class="st3" width="24.4" height="4.7"/>
</g>
<g>
	<rect x="84" y="29.4" transform="matrix(0.7071 -0.7071 0.7071 0.7071 -2.9872 72.7872)" class="st3" width="4.7" height="21.3"/>
	
		<rect x="59.1" y="36.4" transform="matrix(0.7071 -0.7071 0.7071 0.7071 -6.5653 61.7649)" class="st3" width="24.4" height="4.7"/>
	<rect x="55" y="26.6" transform="matrix(0.7071 -0.7071 0.7071 0.7071 -10.6385 51.931)" class="st3" width="4.7" height="24.4"/>
	<rect x="33" y="37.1" transform="matrix(0.7071 -0.7071 0.7071 0.7071 -15.3866 41.8229)" class="st3" width="19.7" height="4.7"/>
	
		<rect x="28.2" y="29.4" transform="matrix(0.7071 -0.7071 0.7071 0.7071 -19.344 33.3537)" class="st3" width="4.7" height="21.2"/>
	
		<rect x="3.3" y="36.4" transform="matrix(0.7071 -0.7071 0.7071 0.7071 -22.9106 22.3037)" class="st3" width="24.4" height="4.7"/>
</g>
<g>
	<rect x="84" y="42.4" transform="matrix(0.7071 -0.7071 0.7071 0.7071 -12.1973 76.6021)" class="st3" width="4.7" height="21.3"/>
	
		<rect x="59.1" y="49.5" transform="matrix(0.7071 -0.7071 0.7071 0.7071 -15.7754 65.5799)" class="st3" width="24.4" height="4.7"/>
	<rect x="55" y="39.6" transform="matrix(0.7071 -0.7071 0.7071 0.7071 -19.8486 55.7459)" class="st3" width="4.7" height="24.4"/>
	<rect x="33" y="50.1" transform="matrix(0.7071 -0.7071 0.7071 0.7071 -24.5966 45.6378)" class="st3" width="19.7" height="4.7"/>
	
		<rect x="28.2" y="42.4" transform="matrix(0.7071 -0.7071 0.7071 0.7071 -28.5541 37.1686)" class="st3" width="4.7" height="21.2"/>
	
		<rect x="3.3" y="49.5" transform="matrix(0.7071 -0.7071 0.7071 0.7071 -32.1207 26.1186)" class="st3" width="24.4" height="4.7"/>
</g>
<g>
	<rect x="84" y="55.4" transform="matrix(0.7071 -0.7071 0.7071 0.7071 -21.4073 80.4171)" class="st3" width="4.7" height="21.3"/>
	
		<rect x="59.1" y="62.5" transform="matrix(0.7071 -0.7071 0.7071 0.7071 -24.9854 69.3948)" class="st3" width="24.4" height="4.7"/>
	<rect x="55" y="52.7" transform="matrix(0.7071 -0.7071 0.7071 0.7071 -29.0586 59.5608)" class="st3" width="4.7" height="24.4"/>
	<rect x="33" y="63.2" transform="matrix(0.7071 -0.7071 0.7071 0.7071 -33.8067 49.4528)" class="st3" width="19.7" height="4.7"/>
	
		<rect x="28.2" y="55.5" transform="matrix(0.7071 -0.7071 0.7071 0.7071 -37.7642 40.9836)" class="st3" width="4.7" height="21.2"/>
	
		<rect x="3.3" y="62.5" transform="matrix(0.7071 -0.7071 0.7071 0.7071 -41.3308 29.9336)" class="st3" width="24.4" height="4.7"/>
</g>
</svg>
