<?xml version="1.0" encoding="utf-8"?>
<!-- Generator: Adobe Illustrator 21.1.0, SVG Export Plug-In . SVG Version: 6.00 Build 0)  -->
<svg version="1.1" xmlns="http://www.w3.org/2000/svg" xmlns:xlink="http://www.w3.org/1999/xlink" x="0px" y="0px"
	 viewBox="0 0 394 107" style="enable-background:new 0 0 394 107;" xml:space="preserve">
<style type="text/css">
	.st0{fill:#FFFFFF;}
</style>
<g id="Layer_3">
</g>
<g id="Layer_1">
</g>
<g id="motiv">
</g>
<g id="Layer_4">
	<g>
		<g>
			<path class="st0" d="M7.4,42.8H2.6L20.3,2.1h4l17.7,40.7h-4.8l-4.5-10.7H11.9L7.4,42.8z M13.5,28.3h17.7L22.3,6.9L13.5,28.3z"/>
			<path class="st0" d="M76.9,35.3L90.6,2.1H97v40.7h-4.1V7.6h-0.1L78,42.8h-2.2L61.1,7.6H61v35.2h-4.1V2.1h6.3L76.9,35.3z"/>
			<path class="st0" d="M146.3,27.7c0,1.7-0.2,3.5-0.6,5.4s-1.2,3.7-2.3,5.3c-1.1,1.6-2.6,2.9-4.6,4c-1.9,1.1-4.4,1.6-7.5,1.6
				c-3.1,0-5.6-0.5-7.5-1.6c-1.9-1.1-3.4-2.4-4.5-4c-1.1-1.6-1.9-3.4-2.3-5.3s-0.6-3.7-0.6-5.4V2.1h4.1v25.1c0,2,0.2,3.6,0.6,5
				c0.4,1.4,0.9,2.6,1.5,3.5c0.6,1,1.3,1.7,2.1,2.3c0.8,0.6,1.6,1,2.4,1.3c0.8,0.3,1.5,0.5,2.3,0.6c0.7,0.1,1.4,0.1,1.9,0.1
				c0.5,0,1.1,0,1.9-0.1c0.7-0.1,1.5-0.3,2.3-0.6c0.8-0.3,1.6-0.7,2.4-1.3c0.8-0.6,1.5-1.3,2.1-2.3s1.1-2.1,1.5-3.5
				c0.4-1.4,0.6-3.1,0.6-5V2.1h4.1V27.7z"/>
			<path class="st0" d="M195.4,36.6h0.1V2.1h4.1v40.7h-5.2L170.2,8H170v34.9h-4.1V2.1h5.2L195.4,36.6z"/>
			<path class="st0" d="M219.2,2.1h13.5c2.5,0,5.1,0.4,7.6,1.3c2.5,0.8,4.9,2.1,6.9,3.8c2.1,1.7,3.7,3.8,5,6.4
				c1.3,2.6,1.9,5.5,1.9,8.9c0,3.4-0.6,6.4-1.9,8.9c-1.3,2.5-2.9,4.7-5,6.4c-2.1,1.7-4.4,3-6.9,3.8c-2.6,0.8-5.1,1.3-7.6,1.3h-13.5
				V2.1z M223.4,39h8.1c3.1,0,5.8-0.5,8.1-1.4c2.3-0.9,4.2-2.2,5.7-3.7c1.5-1.6,2.6-3.3,3.4-5.3c0.7-2,1.1-4,1.1-6.1
				c0-2.1-0.4-4.2-1.1-6.1c-0.7-2-1.9-3.7-3.4-5.3c-1.5-1.6-3.4-2.8-5.7-3.7c-2.3-0.9-5-1.4-8.1-1.4h-8.1V39z"/>
			<path class="st0" d="M290.9,8.8c-1.8-2.6-4.4-4-7.9-4c-1.1,0-2.1,0.1-3.2,0.4c-1,0.3-2,0.7-2.8,1.3c-0.8,0.6-1.5,1.4-2,2.3
				c-0.5,0.9-0.7,2-0.7,3.3c0,1.8,0.5,3.3,1.6,4.3c1,1,2.3,1.9,3.9,2.5s3.2,1.2,5,1.8c1.8,0.5,3.5,1.2,5,2.1s2.8,2,3.9,3.4
				s1.6,3.4,1.6,5.8c0,1.8-0.4,3.5-1.2,5c-0.8,1.5-1.8,2.7-3.1,3.7c-1.3,1-2.7,1.8-4.3,2.3c-1.6,0.5-3.2,0.8-4.8,0.8
				c-2.5,0-4.9-0.5-7.1-1.4s-4.2-2.5-5.7-4.6l3.8-2.7c0.9,1.5,2.1,2.7,3.7,3.6c1.6,0.9,3.4,1.4,5.6,1.4c1,0,2.1-0.2,3.1-0.5
				c1-0.3,2-0.8,2.8-1.4c0.8-0.6,1.5-1.4,2-2.3c0.5-0.9,0.8-2,0.8-3.2c0-1.4-0.3-2.6-0.9-3.5c-0.6-0.9-1.4-1.7-2.4-2.4
				s-2.1-1.2-3.3-1.6c-1.2-0.4-2.5-0.8-3.9-1.3c-1.3-0.4-2.6-0.9-3.9-1.4c-1.2-0.5-2.4-1.2-3.3-2c-1-0.8-1.8-1.9-2.4-3.1
				c-0.6-1.2-0.9-2.8-0.9-4.7c0-2,0.4-3.7,1.1-5.1s1.7-2.7,3-3.6c1.2-1,2.7-1.7,4.2-2.1c1.6-0.5,3.2-0.7,4.8-0.7
				c2.3,0,4.4,0.4,6.3,1.1c1.9,0.7,3.6,2,5.2,3.9L290.9,8.8z"/>
			<path class="st0" d="M316.9,39h21.8v3.8h-26V2.1H338v3.8h-21.1v13.9h19.7v3.8h-19.7V39z"/>
			<path class="st0" d="M385.5,36.6h0.1V2.1h4.1v40.7h-5.2L360.3,8h-0.1v34.9h-4.1V2.1h5.2L385.5,36.6z"/>
		</g>
		<g>
			<path class="st0" d="M6.7,61.8h15.2c1.8,0,3.5,0.1,5.3,0.4c1.8,0.2,3.4,0.7,4.8,1.5c1.4,0.7,2.6,1.8,3.5,3.1
				c0.9,1.3,1.3,3.1,1.3,5.4c0,2.3-0.6,4.2-1.9,5.7c-1.3,1.5-3,2.6-5.1,3.3v0.1c1.3,0.2,2.6,0.6,3.7,1.1c1.1,0.6,2,1.3,2.8,2.1
				c0.8,0.9,1.4,1.9,1.8,3c0.4,1.2,0.6,2.4,0.6,3.7c0,2.1-0.5,3.9-1.4,5.4c-0.9,1.4-2.1,2.6-3.6,3.5c-1.5,0.9-3.1,1.5-4.9,1.9
				c-1.8,0.4-3.6,0.6-5.4,0.6H6.7V61.8z M15.7,78.1h6.5c0.7,0,1.4-0.1,2-0.2c0.7-0.2,1.3-0.4,1.8-0.7c0.5-0.3,1-0.8,1.3-1.4
				c0.3-0.6,0.5-1.3,0.5-2.1c0-0.8-0.2-1.5-0.5-2.1c-0.4-0.6-0.8-1-1.4-1.3c-0.6-0.3-1.2-0.5-2-0.7c-0.7-0.1-1.4-0.2-2.1-0.2h-6.1
				V78.1z M15.7,95h8.1c0.7,0,1.4-0.1,2.1-0.2c0.7-0.2,1.4-0.4,1.9-0.8c0.6-0.4,1-0.9,1.4-1.5c0.4-0.6,0.5-1.4,0.5-2.2
				c0-1-0.2-1.7-0.7-2.3c-0.5-0.6-1.1-1-1.8-1.4c-0.7-0.3-1.5-0.5-2.4-0.6c-0.8-0.1-1.6-0.2-2.4-0.2h-6.8V95z"/>
			<path class="st0" d="M66.6,61.8H74l17.7,40.7H81.6l-3.5-8.6H62.3l-3.4,8.6H49L66.6,61.8z M70,73.7l-4.9,12.7h10L70,73.7z"/>
			<path class="st0" d="M105,61.8h13.5c3.3,0,6.4,0.4,9.3,1.1s5.5,1.9,7.7,3.5c2.2,1.6,3.9,3.8,5.2,6.4c1.3,2.6,1.9,5.8,1.9,9.5
				c0,3.3-0.6,6.2-1.9,8.7c-1.2,2.5-2.9,4.6-5,6.3c-2.1,1.7-4.5,3-7.3,3.9c-2.8,0.9-5.7,1.3-8.7,1.3H105V61.8z M113.9,94.3h4.7
				c2.1,0,4-0.2,5.8-0.6c1.8-0.4,3.3-1.1,4.6-2.1c1.3-1,2.3-2.3,3.1-3.9s1.1-3.5,1.1-5.8c0-2-0.4-3.7-1.1-5.2
				c-0.7-1.5-1.8-2.7-3-3.7c-1.3-1-2.8-1.7-4.5-2.2c-1.7-0.5-3.5-0.7-5.4-0.7h-5.3V94.3z"/>
			<path class="st0" d="M209.6,93l9.1,9.6h-11.1l-3.4-3.9c-1.7,1.7-3.5,3-5.4,3.7c-1.9,0.8-4.1,1.2-6.5,1.2c-1.8,0-3.6-0.2-5.4-0.7
				c-1.7-0.5-3.3-1.3-4.6-2.3c-1.4-1-2.4-2.3-3.3-3.8c-0.8-1.5-1.2-3.3-1.2-5.4c0-1.3,0.2-2.5,0.7-3.7c0.4-1.2,1.1-2.2,1.8-3.2
				c0.8-1,1.7-1.8,2.7-2.5s2.2-1.3,3.4-1.7c-0.7-0.7-1.3-1.4-1.8-2.1c-0.6-0.7-1-1.3-1.4-2.1c-0.4-0.7-0.7-1.5-0.9-2.3
				c-0.2-0.8-0.3-1.7-0.3-2.7c0-1.8,0.4-3.4,1.1-4.7c0.7-1.3,1.7-2.4,2.8-3.2c1.2-0.8,2.6-1.5,4.1-1.8c1.5-0.4,3.1-0.6,4.7-0.6
				c1.6,0,3.1,0.2,4.5,0.6c1.4,0.4,2.7,1,3.8,1.8c1.1,0.8,2,1.9,2.6,3.1c0.7,1.2,1,2.7,1,4.5c0,1.2-0.2,2.4-0.6,3.4s-0.9,2-1.6,2.9
				c-0.7,0.9-1.5,1.7-2.4,2.4c-0.9,0.7-1.9,1.3-2.9,1.9l5.2,5.6l4-5.4h10L209.6,93z M191.7,85.2c-0.6,0.3-1.1,0.7-1.7,1.1
				c-0.6,0.4-1.1,0.8-1.5,1.2c-0.4,0.4-0.8,0.9-1.1,1.5c-0.3,0.6-0.4,1.2-0.4,2c0,0.8,0.2,1.5,0.5,2.1c0.3,0.6,0.7,1.1,1.2,1.6
				c0.5,0.4,1.1,0.8,1.8,1c0.7,0.2,1.4,0.4,2,0.4c1.3,0,2.5-0.3,3.5-0.9s1.9-1.3,2.9-2.1L191.7,85.2z M194.5,67.7
				c-1.1,0-2.1,0.3-2.8,1c-0.8,0.7-1.2,1.6-1.2,2.8c0,0.5,0.1,1,0.3,1.5c0.2,0.5,0.5,0.9,0.8,1.4c0.3,0.4,0.7,0.9,1.1,1.2
				c0.4,0.4,0.8,0.7,1.1,1c0.5-0.3,1-0.6,1.5-0.9c0.5-0.4,1-0.8,1.5-1.2c0.5-0.4,0.8-0.9,1.2-1.4c0.3-0.5,0.5-1.1,0.5-1.6
				c0-1.2-0.4-2.1-1.2-2.7C196.6,68,195.6,67.7,194.5,67.7z"/>
			<path class="st0" d="M254.3,61.8h27.3v8.3h-18.4v8.3h17v8.3h-17v15.9h-9V61.8z"/>
			<path class="st0" d="M297.7,61.8h9v32.5h16.6v8.3h-25.6V61.8z"/>
			<path class="st0" d="M337.3,61.8h9v40.7h-9V61.8z"/>
			<path class="st0" d="M383.8,71.8c-0.7-0.9-1.7-1.6-3-2c-1.2-0.4-2.4-0.7-3.5-0.7c-0.7,0-1.3,0.1-2,0.2s-1.3,0.4-2,0.7
				c-0.6,0.3-1.1,0.8-1.5,1.3c-0.4,0.5-0.6,1.2-0.6,2c0,1.2,0.5,2.2,1.4,2.8c0.9,0.7,2.1,1.2,3.5,1.7c1.4,0.5,2.9,0.9,4.5,1.4
				c1.6,0.5,3.1,1.1,4.5,2s2.6,2,3.5,3.4c0.9,1.4,1.4,3.3,1.4,5.7c0,2.3-0.4,4.2-1.3,5.9c-0.8,1.7-2,3.1-3.4,4.2
				c-1.4,1.1-3.1,1.9-5,2.5c-1.9,0.5-3.9,0.8-6,0.8c-2.6,0-5.1-0.4-7.4-1.2c-2.3-0.8-4.4-2.1-6.3-3.9l6.4-7c0.9,1.2,2.1,2.2,3.5,2.8
				c1.4,0.7,2.8,1,4.3,1c0.7,0,1.5-0.1,2.2-0.3s1.4-0.4,2-0.8c0.6-0.3,1.1-0.8,1.4-1.3c0.4-0.5,0.5-1.2,0.5-1.9
				c0-1.2-0.5-2.2-1.4-2.9c-0.9-0.7-2.1-1.3-3.5-1.8c-1.4-0.5-3-1-4.6-1.5c-1.7-0.5-3.2-1.2-4.6-2c-1.4-0.8-2.6-2-3.5-3.3
				c-0.9-1.4-1.4-3.2-1.4-5.5c0-2.2,0.4-4.1,1.3-5.8c0.9-1.6,2-3,3.5-4.1c1.4-1.1,3.1-1.9,5-2.5c1.9-0.6,3.8-0.8,5.8-0.8
				c2.3,0,4.5,0.3,6.7,1c2.1,0.7,4.1,1.7,5.8,3.3L383.8,71.8z"/>
		</g>
	</g>
</g>
</svg>
